<mxfile host="app.diagrams.net" modified="2023-12-13T17:06:24.535Z" agent="Mozilla/5.0 (Windows NT 10.0; Win64; x64) AppleWebKit/537.36 (KHTML, like Gecko) Chrome/120.0.0.0 Safari/537.36" etag="OECWM315P0sk9eqWEWY9" version="22.1.8" type="github">
  <diagram name="Страница — 1" id="WSpf2R3lcupBbCnASCNv">
    <mxGraphModel dx="1750" dy="943" grid="1" gridSize="10" guides="1" tooltips="1" connect="1" arrows="1" fold="1" page="1" pageScale="1" pageWidth="827" pageHeight="1169" math="0" shadow="0">
      <root>
        <mxCell id="0" />
        <mxCell id="1" parent="0" />
        <mxCell id="o2LxJ038xUt1YhMu7u4r-6" value="Game" style="swimlane;fontStyle=1;align=center;verticalAlign=top;childLayout=stackLayout;horizontal=1;startSize=26;horizontalStack=0;resizeParent=1;resizeParentMax=0;resizeLast=0;collapsible=1;marginBottom=0;whiteSpace=wrap;html=1;" parent="1" vertex="1">
          <mxGeometry x="190" y="20" width="240" height="250" as="geometry">
            <mxRectangle x="340" y="90" width="70" height="30" as="alternateBounds" />
          </mxGeometry>
        </mxCell>
        <mxCell id="o2LxJ038xUt1YhMu7u4r-7" value="- Players:Player[]&lt;br&gt;- Line:Domino[]&lt;br&gt;- CurrentPlayerStep : int&lt;br&gt;- LatsDomino : Domino" style="text;align=left;verticalAlign=top;spacingLeft=4;spacingRight=4;overflow=hidden;rotatable=0;points=[[0,0.5],[1,0.5]];portConstraint=eastwest;whiteSpace=wrap;html=1;" parent="o2LxJ038xUt1YhMu7u4r-6" vertex="1">
          <mxGeometry y="26" width="240" height="114" as="geometry" />
        </mxCell>
        <mxCell id="o2LxJ038xUt1YhMu7u4r-8" value="" style="line;strokeWidth=1;fillColor=none;align=left;verticalAlign=middle;spacingTop=-1;spacingLeft=3;spacingRight=3;rotatable=0;labelPosition=right;points=[];portConstraint=eastwest;strokeColor=inherit;" parent="o2LxJ038xUt1YhMu7u4r-6" vertex="1">
          <mxGeometry y="140" width="240" height="8" as="geometry" />
        </mxCell>
        <mxCell id="o2LxJ038xUt1YhMu7u4r-9" value="+ Game (playersCount:int)&lt;br&gt;- CreatePlayers (playersCount:int) -&amp;gt; void&lt;br&gt;- StartGame():void&lt;br&gt;- PlayerMove(): void&lt;br&gt;- HasWinner() : bool&lt;br&gt;+ FinishGame () : void" style="text;strokeColor=none;fillColor=none;align=left;verticalAlign=top;spacingLeft=4;spacingRight=4;overflow=hidden;rotatable=0;points=[[0,0.5],[1,0.5]];portConstraint=eastwest;whiteSpace=wrap;html=1;" parent="o2LxJ038xUt1YhMu7u4r-6" vertex="1">
          <mxGeometry y="148" width="240" height="102" as="geometry" />
        </mxCell>
        <mxCell id="o2LxJ038xUt1YhMu7u4r-10" value="Player" style="swimlane;fontStyle=1;align=center;verticalAlign=top;childLayout=stackLayout;horizontal=1;startSize=26;horizontalStack=0;resizeParent=1;resizeParentMax=0;resizeLast=0;collapsible=1;marginBottom=0;whiteSpace=wrap;html=1;" parent="1" vertex="1">
          <mxGeometry x="452" y="300" width="350" height="150" as="geometry">
            <mxRectangle x="250" y="350" width="80" height="30" as="alternateBounds" />
          </mxGeometry>
        </mxCell>
        <mxCell id="o2LxJ038xUt1YhMu7u4r-11" value="+ Hand: Hand&lt;br&gt;+ Name: string&lt;br&gt;+ Nickname" style="text;strokeColor=none;fillColor=none;align=left;verticalAlign=top;spacingLeft=4;spacingRight=4;overflow=hidden;rotatable=0;points=[[0,0.5],[1,0.5]];portConstraint=eastwest;whiteSpace=wrap;html=1;" parent="o2LxJ038xUt1YhMu7u4r-10" vertex="1">
          <mxGeometry y="26" width="350" height="64" as="geometry" />
        </mxCell>
        <mxCell id="o2LxJ038xUt1YhMu7u4r-12" value="" style="line;strokeWidth=1;fillColor=none;align=left;verticalAlign=middle;spacingTop=-1;spacingLeft=3;spacingRight=3;rotatable=0;labelPosition=right;points=[];portConstraint=eastwest;strokeColor=inherit;" parent="o2LxJ038xUt1YhMu7u4r-10" vertex="1">
          <mxGeometry y="90" width="350" height="8" as="geometry" />
        </mxCell>
        <mxCell id="o2LxJ038xUt1YhMu7u4r-13" value="+ Player (name: string, nickname:string, startHand:Hand)&lt;br&gt;+ MakeStep (lastDomino:Domino) -&amp;gt; Domino&lt;br&gt;- StepValid (lastDomino: Domino, selectedDomino) -&amp;gt; bool" style="text;strokeColor=none;fillColor=none;align=left;verticalAlign=top;spacingLeft=4;spacingRight=4;overflow=hidden;rotatable=0;points=[[0,0.5],[1,0.5]];portConstraint=eastwest;whiteSpace=wrap;html=1;" parent="o2LxJ038xUt1YhMu7u4r-10" vertex="1">
          <mxGeometry y="98" width="350" height="52" as="geometry" />
        </mxCell>
        <mxCell id="o2LxJ038xUt1YhMu7u4r-14" value="Hand" style="swimlane;fontStyle=1;align=center;verticalAlign=top;childLayout=stackLayout;horizontal=1;startSize=26;horizontalStack=0;resizeParent=1;resizeParentMax=0;resizeLast=0;collapsible=1;marginBottom=0;whiteSpace=wrap;html=1;" parent="1" vertex="1">
          <mxGeometry x="532" y="600" width="190" height="130" as="geometry" />
        </mxCell>
        <mxCell id="o2LxJ038xUt1YhMu7u4r-15" value="-&amp;nbsp; dominos : List&amp;lt;Domino&amp;gt;" style="text;strokeColor=none;fillColor=none;align=left;verticalAlign=top;spacingLeft=4;spacingRight=4;overflow=hidden;rotatable=0;points=[[0,0.5],[1,0.5]];portConstraint=eastwest;whiteSpace=wrap;html=1;" parent="o2LxJ038xUt1YhMu7u4r-14" vertex="1">
          <mxGeometry y="26" width="190" height="40" as="geometry" />
        </mxCell>
        <mxCell id="o2LxJ038xUt1YhMu7u4r-16" value="" style="line;strokeWidth=1;fillColor=none;align=left;verticalAlign=middle;spacingTop=-1;spacingLeft=3;spacingRight=3;rotatable=0;labelPosition=right;points=[];portConstraint=eastwest;strokeColor=inherit;" parent="o2LxJ038xUt1YhMu7u4r-14" vertex="1">
          <mxGeometry y="66" width="190" height="8" as="geometry" />
        </mxCell>
        <mxCell id="o2LxJ038xUt1YhMu7u4r-17" value="+ Hand (dominosValues: int[][])&lt;br&gt;+ GetHand() -&amp;gt; List&amp;lt;Domino&amp;gt;&lt;br&gt;+ ChooseDomino() -&amp;gt; Domino" style="text;strokeColor=none;fillColor=none;align=left;verticalAlign=top;spacingLeft=4;spacingRight=4;overflow=hidden;rotatable=0;points=[[0,0.5],[1,0.5]];portConstraint=eastwest;whiteSpace=wrap;html=1;" parent="o2LxJ038xUt1YhMu7u4r-14" vertex="1">
          <mxGeometry y="74" width="190" height="56" as="geometry" />
        </mxCell>
        <mxCell id="n3KIZCUV4Ak1s4q1xW3Y-8" value="&lt;p style=&quot;margin:0px;margin-top:4px;text-align:center;&quot;&gt;&lt;b&gt;Domino&lt;/b&gt;&lt;/p&gt;&lt;hr size=&quot;1&quot;&gt;&lt;p style=&quot;margin:0px;margin-left:4px;&quot;&gt;- firtsValue&lt;br style=&quot;border-color: var(--border-color);&quot;&gt;- secondValue&lt;br&gt;&lt;/p&gt;&lt;hr size=&quot;1&quot;&gt;&lt;p style=&quot;margin:0px;margin-left:4px;&quot;&gt;+ Domino(firstValue:int, secondValue:int)&lt;/p&gt;&lt;p style=&quot;margin:0px;margin-left:4px;&quot;&gt;+ GetDomino() -&amp;gt; int[]&lt;/p&gt;" style="verticalAlign=top;align=left;overflow=fill;fontSize=12;fontFamily=Helvetica;html=1;whiteSpace=wrap;" vertex="1" parent="1">
          <mxGeometry x="20" y="640" width="236" height="135" as="geometry" />
        </mxCell>
        <mxCell id="n3KIZCUV4Ak1s4q1xW3Y-9" style="edgeStyle=orthogonalEdgeStyle;rounded=0;orthogonalLoop=1;jettySize=auto;html=1;" edge="1" parent="1" source="o2LxJ038xUt1YhMu7u4r-9" target="o2LxJ038xUt1YhMu7u4r-10">
          <mxGeometry relative="1" as="geometry" />
        </mxCell>
        <mxCell id="n3KIZCUV4Ak1s4q1xW3Y-14" style="edgeStyle=orthogonalEdgeStyle;rounded=0;orthogonalLoop=1;jettySize=auto;html=1;exitX=0;exitY=0.5;exitDx=0;exitDy=0;entryX=1;entryY=0.5;entryDx=0;entryDy=0;" edge="1" parent="1" source="o2LxJ038xUt1YhMu7u4r-15" target="n3KIZCUV4Ak1s4q1xW3Y-8">
          <mxGeometry relative="1" as="geometry" />
        </mxCell>
        <mxCell id="n3KIZCUV4Ak1s4q1xW3Y-15" style="edgeStyle=orthogonalEdgeStyle;rounded=0;orthogonalLoop=1;jettySize=auto;html=1;entryX=0.5;entryY=0;entryDx=0;entryDy=0;" edge="1" parent="1" source="o2LxJ038xUt1YhMu7u4r-7" target="n3KIZCUV4Ak1s4q1xW3Y-8">
          <mxGeometry relative="1" as="geometry" />
        </mxCell>
        <mxCell id="n3KIZCUV4Ak1s4q1xW3Y-16" style="edgeStyle=orthogonalEdgeStyle;rounded=0;orthogonalLoop=1;jettySize=auto;html=1;entryX=0.5;entryY=0;entryDx=0;entryDy=0;" edge="1" parent="1" source="o2LxJ038xUt1YhMu7u4r-13" target="o2LxJ038xUt1YhMu7u4r-14">
          <mxGeometry relative="1" as="geometry" />
        </mxCell>
      </root>
    </mxGraphModel>
  </diagram>
</mxfile>
